<?xml version="1.0" encoding="UTF-8"?>
<!DOCTYPE svg PUBLIC "-//W3C//DTD SVG 1.1//EN" "http://www.w3.org/Graphics/SVG/1.1/DTD/svg11.dtd">
<svg xmlns="http://www.w3.org/2000/svg" version="1.1" width="342px" height="284px" style="shape-rendering:geometricPrecision; text-rendering:geometricPrecision; image-rendering:optimizeQuality; fill-rule:evenodd; clip-rule:evenodd" xmlns:xlink="http://www.w3.org/1999/xlink">
<g><path style="opacity:1" fill="#fefefe" d="M -0.5,-0.5 C 113.5,-0.5 227.5,-0.5 341.5,-0.5C 341.5,94.1667 341.5,188.833 341.5,283.5C 227.5,283.5 113.5,283.5 -0.5,283.5C -0.5,188.833 -0.5,94.1667 -0.5,-0.5 Z"/></g>
<g><path style="opacity:1" fill="#9ad7cb" d="M 164.5,39.5 C 164.5,41.5 164.5,43.5 164.5,45.5C 162.142,49.0771 158.809,50.2437 154.5,49C 149.167,45 149.167,41 154.5,37C 156.167,36.3333 157.833,36.3333 159.5,37C 161.078,38.0945 162.745,38.9278 164.5,39.5 Z"/></g>
<g><path style="opacity:1" fill="#9ad7c8" d="M 90.5,45.5 C 90.5,43.5 90.5,41.5 90.5,39.5C 95.2582,35.2783 99.7582,35.6116 104,40.5C 104.175,47.6468 100.675,50.4801 93.5,49C 92.3636,47.8549 91.3636,46.6883 90.5,45.5 Z"/></g>
<g><path style="opacity:1" fill="#464344" d="M 90.5,39.5 C 90.5,41.5 90.5,43.5 90.5,45.5C 76.6584,45.6703 66.1584,51.6703 59,63.5C 55.1941,72.9201 54.5275,82.5867 57,92.5C 59.4267,102.786 63.5934,112.286 69.5,121C 74.1548,121.499 78.8215,121.666 83.5,121.5C 84.678,116.809 86.678,112.476 89.5,108.5C 90.8333,107.167 92.1667,107.167 93.5,108.5C 96.6667,116.167 99.8333,123.833 103,131.5C 107.058,122.661 110.724,113.661 114,104.5C 117.234,99.012 119.9,99.3454 122,105.5C 123.94,111.154 125.774,116.821 127.5,122.5C 135.84,122.334 144.173,122.5 152.5,123C 153.833,124.667 153.833,126.333 152.5,128C 143.149,128.832 133.816,128.665 124.5,127.5C 122.547,121.967 120.214,116.633 117.5,111.5C 113.374,121.042 109.541,130.709 106,140.5C 102.284,143.475 99.9507,142.475 99,137.5C 96.7788,130.725 94.2788,124.058 91.5,117.5C 89.4135,120.559 87.4135,123.725 85.5,127C 73.8381,127.5 62.1714,127.667 50.5,127.5C 50.5,125.5 50.5,123.5 50.5,121.5C 54.5,121.5 58.5,121.5 62.5,121.5C 60.0352,115.896 57.5352,110.229 55,104.5C 49.5135,91.7747 48.5135,78.7747 52,65.5C 59.8816,49.4444 72.7149,40.7777 90.5,39.5 Z"/></g>
<g><path style="opacity:1" fill="#474443" d="M 164.5,39.5 C 189.672,41.5058 203.339,55.0058 205.5,80C 203.661,100.521 196.161,118.688 183,134.5C 167.739,152.272 150.239,167.272 130.5,179.5C 130.33,178.178 130.663,177.011 131.5,176C 129.251,175.137 127.418,175.637 126,177.5C 124.893,176.288 124.393,176.621 124.5,178.5C 122.147,177.66 120.147,176.326 118.5,174.5C 120.512,175.014 122.512,175.18 124.5,175C 123.748,174.329 123.414,173.496 123.5,172.5C 124.807,173.153 126.14,173.82 127.5,174.5C 152.005,160.163 172.172,141.163 188,117.5C 197.274,103.13 200.94,87.4633 199,70.5C 193.112,54.4686 181.612,46.1353 164.5,45.5C 164.5,43.5 164.5,41.5 164.5,39.5 Z"/></g>
<g><path style="opacity:1" fill="#87d7c4" d="M 265.5,197.5 C 264.94,190.879 265.607,184.545 267.5,178.5C 275.143,172.464 275.476,165.964 268.5,159C 259.88,154.15 253.88,156.317 250.5,165.5C 249.03,173.196 252.196,178.196 260,180.5C 260.499,186.157 260.666,191.824 260.5,197.5C 260.167,197.5 259.833,197.5 259.5,197.5C 243.121,194.63 234.454,184.797 233.5,168C 236.581,147.265 248.581,138.265 269.5,141C 291.115,150.704 296.281,165.87 285,186.5C 279.974,192.888 273.474,196.554 265.5,197.5 Z"/></g>
<g><path style="opacity:1" fill="#1d3530" d="M 267.5,178.5 C 266.326,177.486 265.66,176.153 265.5,174.5C 269.419,170.661 269.419,166.827 265.5,163C 258.952,161.392 255.285,163.892 254.5,170.5C 253.698,169.048 253.198,167.382 253,165.5C 252.23,166.598 251.397,166.598 250.5,165.5C 253.88,156.317 259.88,154.15 268.5,159C 275.476,165.964 275.143,172.464 267.5,178.5 Z"/></g>
<g><path style="opacity:1" fill="#8ad7bd" d="M 265.5,174.5 C 262.813,174.664 260.146,174.497 257.5,174C 256.364,172.855 255.364,171.688 254.5,170.5C 255.285,163.892 258.952,161.392 265.5,163C 269.419,166.827 269.419,170.661 265.5,174.5 Z"/></g>
<g><path style="opacity:1" fill="#3c393b" d="M 123.5,172.5 C 123.414,173.496 123.748,174.329 124.5,175C 122.512,175.18 120.512,175.014 118.5,174.5C 100.749,163.761 85.416,150.094 72.5,133.5C 73.6927,131.616 75.3594,131.116 77.5,132C 85.5,140 93.5,148 101.5,156C 109.017,161.363 116.35,166.863 123.5,172.5 Z"/></g>
<g><path style="opacity:1" fill="#2a3939" d="M 250.5,165.5 C 251.397,166.598 252.23,166.598 253,165.5C 253.198,167.382 253.698,169.048 254.5,170.5C 255.364,171.688 256.364,172.855 257.5,174C 260.146,174.497 262.813,174.664 265.5,174.5C 265.66,176.153 266.326,177.486 267.5,178.5C 265.607,184.545 264.94,190.879 265.5,197.5C 264.487,203.244 263.154,208.911 261.5,214.5C 260.624,214.631 259.957,214.298 259.5,213.5C 259.582,208.575 259.916,203.242 260.5,197.5C 260.666,191.824 260.499,186.157 260,180.5C 252.196,178.196 249.03,173.196 250.5,165.5 Z"/></g>
<g><path style="opacity:1" fill="#444140" d="M 259.5,197.5 C 259.833,197.5 260.167,197.5 260.5,197.5C 259.916,203.242 259.582,208.575 259.5,213.5C 259.957,214.298 260.624,214.631 261.5,214.5C 253.894,235.772 239.561,250.439 218.5,258.5C 217.626,257.475 216.459,256.808 215,256.5C 211.523,257.509 208.023,257.509 204.5,256.5C 229.193,251.995 246.36,237.995 256,214.5C 258.128,209.025 259.295,203.358 259.5,197.5 Z"/></g>
<g><path style="opacity:1" fill="#403d3e" d="M 130.5,179.5 C 127.442,212.564 140.442,236.731 169.5,252C 180.827,255.985 192.493,257.485 204.5,256.5C 208.023,257.509 211.523,257.509 215,256.5C 216.459,256.808 217.626,257.475 218.5,258.5C 175.573,268.953 145.406,253.953 128,213.5C 125.302,201.982 124.136,190.315 124.5,178.5C 124.393,176.621 124.893,176.288 126,177.5C 127.418,175.637 129.251,175.137 131.5,176C 130.663,177.011 130.33,178.178 130.5,179.5 Z"/></g>
</svg>
